<?xml version="1.0" encoding="UTF-8" standalone="no"?>
<!DOCTYPE svg PUBLIC "-//W3C//DTD SVG 1.1//EN"
 "http://www.w3.org/Graphics/SVG/1.1/DTD/svg11.dtd">
<!-- Generated by graphviz version 2.40.1 (0)
 -->
<!-- Title: G Pages: 1 -->
<svg width="1517pt" height="182pt"
     viewBox="0.00 0.00 1517.00 182.00" xmlns="http://www.w3.org/2000/svg">
<g id="graph0" class="graph" transform="scale(1 1) rotate(0) translate(4 178)">
<title>G</title>
<polygon fill="#ffffff" stroke="transparent" points="-4,4 -4,-178 1513,-178 1513,4 -4,4"/>
<g id="clust1" class="cluster">
<title>cluster0</title>
<polygon fill="#d3d3d3" stroke="#d3d3d3" points="29,-8 29,-83 1501,-83 1501,-8 29,-8"/>
<text text-anchor="middle" x="765" y="-67.8" font-family="Times,serif" font-size="14.00" fill="#000000">Project</text>
</g>
<g id="clust2" class="cluster">
<title>cluster1</title>
<polygon fill="#d3d3d3" stroke="#d3d3d3" points="8,-91 8,-166 1023,-166 1023,-91 8,-91"/>
<text text-anchor="middle" x="515.5" y="-150.8" font-family="Times,serif" font-size="14.00" fill="#000000">Identity</text>
</g>
<!-- projectCommandIdDELETE_ORGANIZATION -->
<g id="node1" class="node">
<title>projectCommandIdDELETE_ORGANIZATION</title>
<polygon fill="#add8e6" stroke="#add8e6" points="1492.5,-52 1283.5,-52 1283.5,-16 1492.5,-16 1492.5,-52"/>
<text text-anchor="middle" x="1388" y="-30.3" font-family="Times,serif" font-size="14.00" fill="#000000">DELETE_ORGANIZATION</text>
</g>
<!-- projectCommandIdCREATE_ORGANIZATION -->
<g id="node2" class="node">
<title>projectCommandIdCREATE_ORGANIZATION</title>
<polygon fill="#add8e6" stroke="#add8e6" points="1265.5,-52 1056.5,-52 1056.5,-16 1265.5,-16 1265.5,-52"/>
<text text-anchor="middle" x="1161" y="-30.3" font-family="Times,serif" font-size="14.00" fill="#000000">CREATE_ORGANIZATION</text>
</g>
<!-- projectCommandIdUPDATE_ORGANIZATION -->
<g id="node3" class="node">
<title>projectCommandIdUPDATE_ORGANIZATION</title>
<polygon fill="#add8e6" stroke="#add8e6" points="1038,-52 828,-52 828,-16 1038,-16 1038,-52"/>
<text text-anchor="middle" x="933" y="-30.3" font-family="Times,serif" font-size="14.00" fill="#000000">UPDATE_ORGANIZATION</text>
</g>
<!-- projectCommandIdUPDATE_USER -->
<g id="node4" class="node">
<title>projectCommandIdUPDATE_USER</title>
<polygon fill="#add8e6" stroke="#add8e6" points="810,-52 680,-52 680,-16 810,-16 810,-52"/>
<text text-anchor="middle" x="745" y="-30.3" font-family="Times,serif" font-size="14.00" fill="#000000">UPDATE_USER</text>
</g>
<!-- projectCommandIdCREATE_USER -->
<g id="node5" class="node">
<title>projectCommandIdCREATE_USER</title>
<polygon fill="#add8e6" stroke="#add8e6" points="661.5,-52 532.5,-52 532.5,-16 661.5,-16 661.5,-52"/>
<text text-anchor="middle" x="597" y="-30.3" font-family="Times,serif" font-size="14.00" fill="#000000">CREATE_USER</text>
</g>
<!-- projectCommandIdDELETE_USER -->
<g id="node6" class="node">
<title>projectCommandIdDELETE_USER</title>
<polygon fill="#add8e6" stroke="#add8e6" points="514.5,-52 385.5,-52 385.5,-16 514.5,-16 514.5,-52"/>
<text text-anchor="middle" x="450" y="-30.3" font-family="Times,serif" font-size="14.00" fill="#000000">DELETE_USER</text>
</g>
<!-- projectCommandIdDELETE_PROJECT -->
<g id="node7" class="node">
<title>projectCommandIdDELETE_PROJECT</title>
<polygon fill="#add8e6" stroke="#add8e6" points="367,-52 211,-52 211,-16 367,-16 367,-52"/>
<text text-anchor="middle" x="289" y="-30.3" font-family="Times,serif" font-size="14.00" fill="#000000">DELETE_PROJECT</text>
</g>
<!-- projectCommandIdCREATE_PROJECT -->
<g id="node8" class="node">
<title>projectCommandIdCREATE_PROJECT</title>
<polygon fill="#add8e6" stroke="#add8e6" points="193,-52 37,-52 37,-16 193,-16 193,-52"/>
<text text-anchor="middle" x="115" y="-30.3" font-family="Times,serif" font-size="14.00" fill="#000000">CREATE_PROJECT</text>
</g>
<!-- identityEventIdUSER_CREATED -->
<g id="node9" class="node">
<title>identityEventIdUSER_CREATED</title>
<polygon fill="#ffa500" stroke="#ffa500" points="684,-135 544,-135 544,-99 684,-99 684,-135"/>
<text text-anchor="middle" x="614" y="-113.3" font-family="Times,serif" font-size="14.00" fill="#000000">USER_CREATED</text>
</g>
<!-- identityEventIdUSER_CREATED&#45;&gt;projectCommandIdCREATE_USER -->
<g id="edge1" class="edge">
<title>identityEventIdUSER_CREATED&#45;&gt;projectCommandIdCREATE_USER</title>
<path fill="none" stroke="#000000" d="M610.3113,-98.9902C608.1209,-88.2963 605.2951,-74.4994 602.8108,-62.3706"/>
<polygon fill="#000000" stroke="#000000" points="606.1757,-61.3555 600.7403,-52.2612 599.318,-62.7602 606.1757,-61.3555"/>
</g>
<!-- identityEventIdUSER_DELETED -->
<g id="node10" class="node">
<title>identityEventIdUSER_DELETED</title>
<polygon fill="#ffa500" stroke="#ffa500" points="526,-135 386,-135 386,-99 526,-99 526,-135"/>
<text text-anchor="middle" x="456" y="-113.3" font-family="Times,serif" font-size="14.00" fill="#000000">USER_DELETED</text>
</g>
<!-- identityEventIdUSER_DELETED&#45;&gt;projectCommandIdDELETE_USER -->
<g id="edge2" class="edge">
<title>identityEventIdUSER_DELETED&#45;&gt;projectCommandIdDELETE_USER</title>
<path fill="none" stroke="#000000" d="M454.6981,-98.9902C453.925,-88.2963 452.9277,-74.4994 452.0509,-62.3706"/>
<polygon fill="#000000" stroke="#000000" points="455.5321,-61.9828 451.3201,-52.2612 448.5503,-62.4876 455.5321,-61.9828"/>
</g>
<!-- identityEventIdUSER_UPDATED -->
<g id="node11" class="node">
<title>identityEventIdUSER_UPDATED</title>
<polygon fill="#ffa500" stroke="#ffa500" points="843.5,-135 702.5,-135 702.5,-99 843.5,-99 843.5,-135"/>
<text text-anchor="middle" x="773" y="-113.3" font-family="Times,serif" font-size="14.00" fill="#000000">USER_UPDATED</text>
</g>
<!-- identityEventIdUSER_UPDATED&#45;&gt;projectCommandIdUPDATE_USER -->
<g id="edge3" class="edge">
<title>identityEventIdUSER_UPDATED&#45;&gt;projectCommandIdUPDATE_USER</title>
<path fill="none" stroke="#000000" d="M766.9244,-98.9902C763.2804,-88.1883 758.5683,-74.2204 754.447,-62.0036"/>
<polygon fill="#000000" stroke="#000000" points="757.6734,-60.6178 751.1604,-52.2612 751.0406,-62.8554 757.6734,-60.6178"/>
</g>
<!-- identityEventIdPROJECT_DELETED -->
<g id="node12" class="node">
<title>identityEventIdPROJECT_DELETED</title>
<polygon fill="#ffa500" stroke="#ffa500" points="367.5,-135 200.5,-135 200.5,-99 367.5,-99 367.5,-135"/>
<text text-anchor="middle" x="284" y="-113.3" font-family="Times,serif" font-size="14.00" fill="#000000">PROJECT_DELETED</text>
</g>
<!-- identityEventIdPROJECT_DELETED&#45;&gt;projectCommandIdDELETE_PROJECT -->
<g id="edge4" class="edge">
<title>identityEventIdPROJECT_DELETED&#45;&gt;projectCommandIdDELETE_PROJECT</title>
<path fill="none" stroke="#000000" d="M285.0849,-98.9902C285.7291,-88.2963 286.5603,-74.4994 287.2909,-62.3706"/>
<polygon fill="#000000" stroke="#000000" points="290.7922,-62.4536 287.8999,-52.2612 283.8048,-62.0326 290.7922,-62.4536"/>
</g>
<!-- identityEventIdPROJECT_CREATED -->
<g id="node13" class="node">
<title>identityEventIdPROJECT_CREATED</title>
<polygon fill="#ffa500" stroke="#ffa500" points="182.5,-135 15.5,-135 15.5,-99 182.5,-99 182.5,-135"/>
<text text-anchor="middle" x="99" y="-113.3" font-family="Times,serif" font-size="14.00" fill="#000000">PROJECT_CREATED</text>
</g>
<!-- identityEventIdPROJECT_CREATED&#45;&gt;projectCommandIdCREATE_PROJECT -->
<g id="edge5" class="edge">
<title>identityEventIdPROJECT_CREATED&#45;&gt;projectCommandIdCREATE_PROJECT</title>
<path fill="none" stroke="#000000" d="M102.4718,-98.9902C104.5332,-88.2963 107.1929,-74.4994 109.531,-62.3706"/>
<polygon fill="#000000" stroke="#000000" points="113.0235,-62.743 111.4798,-52.2612 106.1501,-61.4179 113.0235,-62.743"/>
</g>
<!-- identityEventIdREALM_CREATED -->
<g id="node14" class="node">
<title>identityEventIdREALM_CREATED</title>
<polygon fill="#ffa500" stroke="#ffa500" points="1014.5,-135 861.5,-135 861.5,-99 1014.5,-99 1014.5,-135"/>
<text text-anchor="middle" x="938" y="-113.3" font-family="Times,serif" font-size="14.00" fill="#000000">REALM_CREATED</text>
</g>
<!-- identityEventIdREALM_CREATED&#45;&gt;projectCommandIdCREATE_ORGANIZATION -->
<g id="edge6" class="edge">
<title>identityEventIdREALM_CREATED&#45;&gt;projectCommandIdCREATE_ORGANIZATION</title>
<path fill="none" stroke="#000000" d="M999.77,-98.9535C1015.2947,-94.0841 1031.847,-88.6028 1047,-83 1068.8038,-74.9381 1092.4818,-64.9664 1112.5797,-56.1273"/>
<polygon fill="#000000" stroke="#000000" points="1114.1128,-59.2762 1121.8375,-52.025 1111.2769,-52.8764 1114.1128,-59.2762"/>
</g>
</g>
</svg>
